<?xml version="1.0" encoding="utf-8"?>
<!-- Generator: Adobe Illustrator 24.2.1, SVG Export Plug-In . SVG Version: 6.00 Build 0)  -->
<svg version="1.1" id="Calque_1" xmlns="http://www.w3.org/2000/svg" xmlns:xlink="http://www.w3.org/1999/xlink" x="0px" y="0px"
	 viewBox="0 0 930.7 222.1" style="enable-background:new 0 0 930.7 222.1;" xml:space="preserve">
<style type="text/css">
	.st0{fill:#1177AA;}
</style>
<path class="st0" d="M302.2,68.4c-2-2.3-4.7-4.1-7.7-4.9c-3.9-1.1-7.9-1.7-11.9-1.6c-4.1-0.1-8.1,0.4-12,1.6
	c-6.3,1.7-11.2,6.9-12.5,13.3c-0.9,4.1-1.4,8.2-1.3,12.4v105.5c-0.1,4.2,0.4,8.3,1.3,12.3c0.7,3.1,2.2,6,4.3,8.4
	c2.2,2.3,4.9,4,8,4.9c3.9,1.1,8,1.6,12.1,1.6c3.9,0.1,7.8-0.4,11.6-1.4c2.9-0.8,5.6-2.3,7.9-4.3c2.1-2.1,3.5-4.7,4.3-7.5
	c0.9-3.5,1.4-7.2,1.5-10.8v-42.5h-19.7V200c0,1,0,2.1-0.2,3.1c-0.1,0.8-0.4,1.6-0.9,2.2c-0.5,0.6-1,1.1-1.7,1.4
	c-0.8,0.4-1.7,0.6-2.5,0.5c-1,0-1.9-0.2-2.7-0.8c-0.7-0.5-1.4-1.1-1.8-1.9c-0.6-0.9-0.9-2-0.9-3.1c-0.1-1.3-0.1-2.9-0.1-4.6v-48.2
	h30.9V90.1c0.1-4.4-0.4-8.7-1.4-13C305.7,73.9,304.2,70.9,302.2,68.4z M288.2,135h-11.3V85.8c0-1.6,0-3,0.1-4.2
	c0.1-1.1,0.4-2.1,0.9-3.1c0.4-0.8,1.1-1.4,1.8-1.8c0.9-0.4,1.8-0.6,2.7-0.5c0.9,0,1.8,0.2,2.6,0.6c0.7,0.4,1.3,1,1.8,1.6
	c0.5,0.9,0.8,1.9,0.9,2.9c0.1,1.2,0.3,2.7,0.4,4.2L288.2,135z"/>
<polygon class="st0" points="115.1,14.2 119.8,30.6 135.9,30.6 123.5,0 106.5,0 94.3,30.6 110.3,30.6 "/>
<path class="st0" d="M246,73.2c-0.6-1.7-1.4-3.4-2.4-4.9c-0.9-1.3-2-2.5-3.4-3.4c-1.3-0.9-2.8-1.6-4.4-2c-1.7-0.4-3.5-0.6-5.3-0.6
	c-1.9,0-3.8,0.2-5.7,0.8c-1.5,0.5-2.9,1.1-4.1,2c-1.1,0.8-2.1,1.7-2.8,2.8c-0.8,1.1-1.4,2.2-1.9,3.4V64h-19.7v155.8h19.6V87.4
	c0-1.1,0-2.2,0.2-3.4c0.1-1,0.2-1.8,0.4-2.7c0.1-0.7,0.4-1.4,0.8-2.1c0.3-0.5,0.7-0.9,1.1-1.3c0.4-0.3,0.9-0.5,1.5-0.7
	c0.6-0.2,1.3-0.2,1.9-0.2c0.6,0,1.2,0.1,1.8,0.2c0.5,0.1,1.1,0.3,1.5,0.7c0.4,0.3,0.8,0.8,1.1,1.3c0.3,0.7,0.6,1.4,0.7,2.1
	c0.1,0.9,0.3,1.7,0.4,2.7c0.1,1.1,0.2,2.2,0.1,3.4v48.1h20.3V87.7c0-2.7-0.1-5.4-0.4-8.1C247.1,77.4,246.7,75.3,246,73.2z"/>
<path class="st0" d="M365.7,73.2c-0.6-1.7-1.4-3.4-2.4-4.9c-0.9-1.3-2-2.5-3.4-3.4c-1.3-0.9-2.8-1.6-4.3-2c-1.7-0.4-3.5-0.6-5.3-0.6
	c-1.9,0-3.8,0.2-5.7,0.8c-1.5,0.5-2.9,1.1-4.1,2c-1.1,0.8-2.1,1.7-2.8,2.8c-0.8,1.1-1.4,2.2-1.9,3.4V64h-19.7v155.8h19.6V87.4
	c0-1.1,0-2.2,0.2-3.4c0.1-1,0.2-1.8,0.4-2.7c0.1-0.7,0.4-1.5,0.8-2.1c0.3-0.5,0.7-0.9,1.1-1.3c0.4-0.3,0.9-0.5,1.5-0.7
	c0.6-0.2,1.3-0.2,1.9-0.2c0.6,0,1.2,0.1,1.8,0.2c0.5,0.1,1.1,0.3,1.5,0.7c0.4,0.3,0.8,0.8,1.1,1.3c0.3,0.7,0.6,1.4,0.7,2.1
	c0.2,0.9,0.3,1.7,0.4,2.7c0.1,1.1,0.2,2.2,0.2,3.4v48.1h20.3V87.7c0-2.7-0.1-5.4-0.4-8.1C366.9,77.4,366.4,75.3,365.7,73.2z"/>
<path class="st0" d="M46.6,6.7c-2.4-2.4-5.3-4.1-8.5-5.1c-4-1.2-8.2-1.7-12.4-1.6H0v219.7h20.2v-92.7h5.5c4.2,0.1,8.4-0.5,12.5-1.6
	c3.2-1,6.1-2.7,8.5-5c2.3-2.3,3.9-5.3,4.7-8.5c1-3.9,1.4-7.9,1.4-11.8V27.1c0.1-4-0.4-8-1.4-11.9C50.5,12,48.9,9.1,46.6,6.7z
	 M32.2,102.5c0,1.3-0.1,2.6-0.3,3.9c-0.3,2-1.6,3.6-3.5,4.3c-1,0.4-2.1,0.5-3.2,0.5h-5V15.7h5c1.1,0,2.2,0.2,3.2,0.5
	c0.9,0.3,1.7,0.9,2.3,1.6c0.6,0.7,1.1,1.7,1.2,2.6c0.2,1.3,0.3,2.7,0.3,4L32.2,102.5z"/>
<path class="st0" d="M140.3,209.2v-124c0.1-3.7-0.3-7.4-1.2-11c-0.7-2.8-2.1-5.3-4.1-7.3c-2.2-2-4.8-3.3-7.7-3.9
	c-3.9-0.8-7.9-1.2-11.9-1.1c-3.8-0.1-7.7,0.4-11.4,1.3c-2.9,0.7-5.5,2.1-7.8,4c-2.1,1.9-3.6,4.3-4.5,7c-1.1,3.3-1.6,6.8-1.5,10.3v33
	H110V83c0-1.2,0-2.3,0.1-3.3c0.1-0.9,0.4-1.7,0.9-2.4c0.5-0.6,1-1.1,1.7-1.4c0.8-0.4,1.7-0.6,2.6-0.5c0.8,0,1.7,0.2,2.5,0.5
	c0.7,0.3,1.2,0.8,1.7,1.4c0.5,0.7,0.7,1.5,0.8,2.3c0.2,1.1,0.2,2.2,0.2,3.3v40.1h-2.5c-4.7-0.1-9.3,0.4-13.8,1.4
	c-3.3,0.7-6.3,2.2-8.9,4.3c-2.3,2-3.9,4.6-4.7,7.5c-1,3.6-1.4,7.3-1.4,11.1v52c-0.1,3.4,0.3,6.7,1,10c0.5,2.5,1.5,4.8,2.9,6.9
	c1.3,1.8,3.1,3.2,5.1,4c5.8,2.4,12.3,1.9,17.6-1.5c1.2-0.8,2.2-1.8,3.1-2.9c0.8-1.1,1.4-2.3,1.8-3.5c0.1,0.7,0.2,1.4,0.4,2.1
	c0.2,0.6,0.2,1.2,0.1,1.8c0,0.6,0,1.1,0,1.7c0.1,0.6,0.2,1.3,0.4,1.9h19.1c-0.1-1.7-0.2-3.4-0.3-5.1S140.3,211.1,140.3,209.2z
	 M120.5,201.8c-0.1,0.7-0.3,1.4-0.5,2.1c-0.2,0.6-0.5,1.1-0.8,1.6c-0.3,0.4-0.7,0.8-1.1,1.1c-0.4,0.3-0.9,0.5-1.5,0.6
	c-0.6,0.1-1.1,0.1-1.7,0.1c-0.9,0-1.7-0.1-2.5-0.5c-0.7-0.3-1.2-0.8-1.7-1.3c-0.5-0.7-0.8-1.4-0.9-2.2c-0.2-1-0.2-2.1-0.2-3.1V146
	c0-1.8,0.1-3.5,0.5-5.2c0.3-1.2,0.9-2.2,1.8-3c0.9-0.7,2-1.2,3.2-1.4c1.7-0.3,3.5-0.4,5.2-0.4h0.5v63.2
	C120.7,200.1,120.7,201,120.5,201.8L120.5,201.8z"/>
<path class="st0" d="M174.8,29H155v35h-9.8v14.8h9.8v119.7c-0.1,3.4,0.3,6.7,1.2,10c0.7,2.5,2.1,4.8,4,6.6c2.2,1.8,4.8,3.1,7.6,3.6
	c3.9,0.8,7.8,1.1,11.7,1h7.6v-14.8h-3.7c-1.5,0-2.9-0.1-4.4-0.5c-1-0.2-2-0.7-2.8-1.5c-0.7-0.8-1.2-1.8-1.3-2.8
	c-0.2-1.3-0.3-2.7-0.3-4V78.8h12.4V64h-12.4V29z"/>
<rect x="61" y="0" class="st0" width="19.7" height="219.7"/>
<path class="st0" d="M559.4,7c-2.4-2.4-5.3-4.1-8.5-5.1c-4-1.2-8.2-1.7-12.5-1.6h-25.7V220H533v-92.7h5.5c4.2,0.1,8.4-0.5,12.5-1.6
	c3.2-1,6.1-2.7,8.5-5c2.3-2.3,3.9-5.3,4.7-8.5c1-3.9,1.4-7.8,1.4-11.8V27.4c0.1-4-0.4-8-1.4-11.9C563.3,12.3,561.7,9.4,559.4,7z
	 M545,102.8c0,1.3-0.1,2.6-0.3,3.9c-0.2,1-0.6,1.9-1.2,2.7c-0.6,0.7-1.4,1.2-2.3,1.6c-1,0.4-2.1,0.5-3.2,0.5h-5V16h5
	c1.1,0,2.2,0.2,3.2,0.5c0.9,0.3,1.7,0.9,2.3,1.6c0.6,0.7,1.1,1.6,1.2,2.6c0.2,1.3,0.3,2.7,0.3,4V102.8z"/>
<path class="st0" d="M705.6,67.9c-1.2-1.8-2.9-3.2-4.9-4.1c-2.2-1-4.7-1.4-7.1-1.4c-1.9,0-3.9,0.2-5.7,0.8c-1.5,0.4-2.9,1.1-4.2,2
	c-1.1,0.8-2.1,1.7-2.8,2.8c-0.7,1-1.4,2.1-1.9,3.3v-7h-19.7V220h19.7V85.5c0-1.2,0.1-2.4,0.2-3.7c0.1-0.9,0.4-1.8,0.9-2.6
	c0.4-0.7,1-1.2,1.7-1.6c1.6-0.7,3.4-0.7,5,0c0.7,0.4,1.3,0.9,1.7,1.6c0.5,0.8,0.8,1.7,0.9,2.6c0.2,1.2,0.2,2.4,0.2,3.7V220h19.7
	V85.5c0.1-3.5-0.3-7-0.9-10.5C707.9,72.5,707,70.1,705.6,67.9z"/>
<path class="st0" d="M744,29.3h-19.9v35h-9.8v14.8h9.8v119.7c-0.1,3.4,0.3,6.7,1.2,10c0.7,2.5,2.1,4.8,4,6.6
	c2.2,1.8,4.8,3.1,7.6,3.6c3.9,0.8,7.8,1.1,11.7,1h7.6v-14.8h-3.7c-1.5,0-2.9-0.1-4.4-0.5c-1-0.2-2-0.7-2.8-1.5
	c-0.7-0.8-1.2-1.8-1.3-2.8c-0.2-1.3-0.3-2.7-0.3-4V79.1h12.4V64.3H744V29.3z"/>
<path class="st0" d="M793.4,198.8c0,1.2-0.1,2.4-0.2,3.7c-0.1,0.9-0.4,1.8-0.9,2.6c-0.4,0.7-1,1.2-1.7,1.6c-1.6,0.7-3.4,0.7-5,0
	c-0.7-0.4-1.3-0.9-1.7-1.6c-0.5-0.8-0.8-1.7-0.9-2.6c-0.2-1.2-0.2-2.4-0.2-3.7V64.3H763V199c-0.1,3.5,0.3,7,0.9,10.5
	c0.5,2.5,1.4,4.9,2.8,7c1.2,1.8,2.9,3.1,4.9,4c2.2,1,4.7,1.4,7.1,1.4c1.9,0,3.8-0.2,5.7-0.8c1.5-0.4,2.9-1,4.2-1.9
	c1.1-0.8,2-1.8,2.8-2.8c0.8-1,1.4-2.1,2-3.3v7H813V64.3h-19.6L793.4,198.8z"/>
<path class="st0" d="M930.7,149V90.4c0.1-4.4-0.4-8.7-1.4-13c-0.7-3.2-2.2-6.2-4.2-8.7c-2-2.3-4.7-4.1-7.7-4.9
	c-3.9-1.1-7.9-1.7-11.9-1.6c-4.1-0.1-8.1,0.4-12,1.6c-3.1,0.9-5.9,2.6-8.1,4.9c-2.2,2.4-3.7,5.3-4.4,8.5c-0.9,4-1.4,8.2-1.3,12.3
	v105.5c-0.1,4.1,0.4,8.3,1.3,12.3c0.7,3.1,2.2,6,4.3,8.5c2.2,2.3,4.9,4,8,4.9c3.9,1.1,8,1.6,12.1,1.6c3.9,0.1,7.8-0.4,11.6-1.4
	c2.9-0.8,5.6-2.3,7.9-4.3c2.1-2.1,3.5-4.7,4.3-7.5c0.9-3.5,1.4-7.2,1.5-10.8v-42.5h-19.7v44.8c0,1-0.1,2.1-0.2,3.1
	c-0.1,0.8-0.4,1.6-0.9,2.2c-0.4,0.6-1,1.1-1.7,1.4c-0.8,0.4-1.6,0.6-2.5,0.5c-1,0-1.9-0.2-2.8-0.8c-0.7-0.5-1.3-1.1-1.8-1.9
	c-0.6-0.9-0.9-2-0.9-3.1c-0.1-1.4-0.2-2.9-0.2-4.6V149H930.7z M900,81.9c0.1-1.1,0.4-2.1,0.9-3.1c0.4-0.8,1.1-1.4,1.8-1.8
	c0.9-0.4,1.8-0.6,2.8-0.5c0.9,0,1.8,0.2,2.6,0.6c0.7,0.4,1.3,1,1.8,1.6c0.5,0.9,0.8,1.9,0.9,2.9c0.2,1.2,0.3,2.7,0.4,4.3v49.3h-11.3
	V86.1C899.8,84.5,899.9,83.1,900,81.9z"/>
<path class="st0" d="M870.8,73.5c-0.6-1.7-1.4-3.4-2.4-4.9c-0.9-1.3-2-2.5-3.4-3.4c-1.3-0.9-2.8-1.6-4.4-2c-1.7-0.4-3.5-0.6-5.3-0.6
	c-1.9,0-3.8,0.2-5.7,0.8c-1.5,0.5-2.9,1.1-4.1,2c-1.1,0.8-2.1,1.7-2.8,2.9c-0.8,1.1-1.4,2.2-1.9,3.4v-7.3h-19.7V220h19.6V87.7
	c0-1.1,0-2.2,0.2-3.4c0.1-1,0.2-1.8,0.4-2.7c0.1-0.7,0.4-1.5,0.8-2.1c0.3-0.5,0.7-0.9,1.2-1.3c0.4-0.3,0.9-0.5,1.4-0.7
	c0.6-0.2,1.3-0.2,1.9-0.2c0.6,0,1.2,0.1,1.8,0.2c0.5,0.1,1.1,0.4,1.5,0.7c0.4,0.3,0.8,0.8,1.1,1.3c0.3,0.7,0.6,1.4,0.7,2.1
	c0.2,0.9,0.3,1.7,0.4,2.7c0.1,1.1,0.2,2.2,0.2,3.4v47.8h20.3V88c0-2.7-0.1-5.4-0.4-8.1C872,77.7,871.5,75.6,870.8,73.5z"/>
<rect x="629.9" y="64.3" class="st0" width="19.7" height="155.8"/>
<path class="st0" d="M450,68.4c-2-2.3-4.7-4.1-7.7-4.9c-3.9-1.1-7.9-1.7-11.9-1.6c-4.1-0.1-8.1,0.4-12,1.6c-3.1,0.9-5.9,2.6-8.1,4.9
	c-2.2,2.4-3.7,5.3-4.4,8.4c-0.9,4-1.4,8.2-1.3,12.3v105.5c-0.1,4.2,0.4,8.3,1.3,12.3c0.7,3.1,2.2,6,4.3,8.4c2.2,2.3,4.9,4,8,4.9
	c3.9,1.1,8,1.6,12.1,1.6c3.9,0.1,7.8-0.4,11.6-1.4c2.9-0.8,5.6-2.2,7.9-4.3c2.1-2.1,3.5-4.7,4.3-7.5c0.9-3.5,1.4-7.2,1.5-10.8v-42.5
	h-19.7V200c0,1.1-0.1,2.1-0.2,3.1c-0.1,0.8-0.4,1.6-0.9,2.2c-0.5,0.6-1,1.1-1.7,1.4c-0.8,0.4-1.7,0.6-2.5,0.5c-1,0-1.9-0.2-2.8-0.8
	c-0.7-0.5-1.3-1.1-1.8-1.9c-0.6-0.9-0.9-2-0.9-3.1c-0.1-1.4-0.2-2.9-0.2-4.6v-48.3h30.9V90.1c0.1-4.4-0.4-8.7-1.4-13
	C453.5,73.9,452.1,70.9,450,68.4z M436,135h-11.3V85.8c0-1.6,0.1-3,0.2-4.2c0.1-1.1,0.4-2.1,0.9-3.1c0.4-0.8,1.1-1.4,1.8-1.8
	c0.9-0.4,1.8-0.6,2.8-0.5c0.9,0,1.8,0.2,2.6,0.6c0.7,0.4,1.3,1,1.8,1.6c0.5,0.9,0.8,1.9,0.9,2.9c0.2,1.2,0.3,2.7,0.4,4.2L436,135z"
	/>
<rect x="376" y="0" class="st0" width="19.7" height="34.1"/>
<rect x="629.9" y="0.3" class="st0" width="19.7" height="34.1"/>
<rect x="376" y="64" class="st0" width="19.7" height="155.8"/>
<path class="st0" d="M615.1,68.7c-2-2.4-4.7-4.1-7.7-4.9c-3.9-1.1-7.9-1.7-11.9-1.6c-4.1-0.1-8.1,0.4-12,1.6
	c-6.3,1.7-11.2,6.9-12.5,13.3c-0.9,4-1.4,8.2-1.3,12.3v105.5c-0.1,4.1,0.4,8.3,1.3,12.3c0.7,3.1,2.2,6,4.3,8.5c2.2,2.3,4.9,4,8,4.9
	c3.9,1.1,8,1.6,12.1,1.6c3.9,0.1,7.8-0.4,11.6-1.4c2.9-0.8,5.6-2.3,7.9-4.3c2.1-2.1,3.5-4.7,4.3-7.5c0.9-3.5,1.4-7.2,1.5-10.8v-42.5
	h-19.7v44.8c0,1-0.1,2.1-0.2,3.1c-0.1,0.8-0.4,1.6-0.9,2.2c-0.5,0.6-1,1.1-1.7,1.4c-0.8,0.4-1.6,0.6-2.5,0.5c-1,0-1.9-0.2-2.8-0.8
	c-0.7-0.5-1.3-1.1-1.8-1.9c-0.6-0.9-0.9-2-0.9-3.1c-0.1-1.4-0.2-2.9-0.2-4.6V149h30.9V90.4c0.1-4.4-0.4-8.7-1.4-13
	C618.6,74.2,617.2,71.3,615.1,68.7z M601.1,135.3h-11.3V86.1c0-1.6,0-3,0.2-4.2c0.1-1.1,0.4-2.1,0.9-3.1c0.4-0.8,1.1-1.4,1.8-1.8
	c0.9-0.4,1.8-0.6,2.8-0.5c0.9,0,1.8,0.2,2.6,0.6c0.7,0.4,1.3,1,1.8,1.6c0.5,0.9,0.8,1.9,0.9,2.9c0.2,1.2,0.3,2.7,0.4,4.3
	L601.1,135.3z"/>
</svg>
