<?xml version="1.0" encoding="utf-8"?>
<!-- Generator: Adobe Illustrator 24.2.1, SVG Export Plug-In . SVG Version: 6.00 Build 0)  -->
<svg version="1.1" id="Calque_1" xmlns="http://www.w3.org/2000/svg" xmlns:xlink="http://www.w3.org/1999/xlink" x="0px" y="0px"
	 viewBox="0 0 417.9 221.8" style="enable-background:new 0 0 417.9 221.8;" xml:space="preserve">
<style type="text/css">
	.st0{fill:#1177AA;}
</style>
<path class="st0" d="M46.6,6.7c-2.4-2.4-5.3-4.1-8.5-5.1c-4-1.2-8.2-1.7-12.5-1.6H0v219.7h20.2v-92.7h5.5c4.2,0.1,8.4-0.5,12.5-1.6
	c3.2-1,6.1-2.7,8.5-5c2.3-2.3,3.9-5.3,4.7-8.5c1-3.9,1.4-7.8,1.4-11.8V27.1c0.1-4-0.4-8-1.4-11.9C50.5,12,48.9,9.1,46.6,6.7z
	 M32.2,102.5c0,1.3-0.1,2.6-0.3,3.9c-0.2,1-0.6,1.9-1.2,2.7c-0.6,0.7-1.4,1.2-2.3,1.6c-1,0.4-2.1,0.5-3.2,0.5h-5V15.7h5
	c1.1,0,2.2,0.2,3.2,0.5c0.9,0.3,1.7,0.9,2.3,1.6c0.6,0.7,1.1,1.6,1.2,2.6c0.2,1.3,0.3,2.7,0.3,4V102.5z"/>
<path class="st0" d="M192.8,67.6c-1.2-1.8-2.9-3.2-4.9-4.1c-2.2-1-4.7-1.4-7.1-1.4c-1.9,0-3.9,0.2-5.7,0.8c-1.5,0.4-2.9,1.1-4.2,2
	c-1.1,0.8-2.1,1.7-2.8,2.8c-0.7,1-1.4,2.1-1.9,3.3v-7h-19.7v155.7h19.7V85.2c0-1.2,0.1-2.4,0.2-3.7c0.1-0.9,0.4-1.8,0.9-2.6
	c0.4-0.7,1-1.2,1.7-1.6c1.6-0.7,3.4-0.7,5,0c0.7,0.4,1.3,0.9,1.7,1.6c0.5,0.8,0.8,1.7,0.9,2.6c0.2,1.2,0.2,2.4,0.2,3.7v134.5h19.7
	V85.2c0.1-3.5-0.3-7-0.9-10.5C195.1,72.2,194.2,69.8,192.8,67.6z"/>
<path class="st0" d="M231.2,29h-19.9v35h-9.8v14.8h9.8v119.7c-0.1,3.4,0.3,6.7,1.2,10c0.7,2.5,2.1,4.8,4,6.6
	c2.2,1.8,4.8,3.1,7.6,3.6c3.9,0.8,7.8,1.1,11.7,1h7.6v-14.8h-3.7c-1.5,0-2.9-0.1-4.4-0.5c-1-0.2-2-0.7-2.8-1.5
	c-0.7-0.8-1.2-1.8-1.3-2.8c-0.2-1.3-0.3-2.7-0.3-4V78.8h12.4V64h-12.3V29z"/>
<path class="st0" d="M280.6,198.5c0,1.2-0.1,2.4-0.2,3.7c-0.1,0.9-0.4,1.8-0.9,2.6c-0.4,0.7-1,1.2-1.7,1.6c-1.6,0.7-3.4,0.7-5,0
	c-0.7-0.4-1.3-0.9-1.7-1.6c-0.5-0.8-0.8-1.7-0.9-2.6c-0.2-1.2-0.2-2.4-0.2-3.7V64h-19.8v134.7c-0.1,3.5,0.3,7,0.9,10.5
	c0.5,2.5,1.4,4.9,2.8,7c1.2,1.8,2.9,3.1,4.9,4c2.2,1,4.7,1.4,7.1,1.4c1.9,0,3.8-0.2,5.7-0.8c1.5-0.4,2.9-1,4.2-1.9
	c1.1-0.8,2-1.8,2.8-2.8c0.8-1,1.4-2.1,2-3.3v7h19.6V64h-19.6L280.6,198.5z"/>
<path class="st0" d="M417.9,148.7V90.1c0.1-4.4-0.4-8.7-1.4-13c-0.7-3.2-2.2-6.2-4.2-8.7c-2-2.3-4.7-4.1-7.7-4.9
	c-3.9-1.1-7.9-1.7-11.9-1.6c-4.1-0.1-8.1,0.4-12,1.6c-3.1,0.9-5.9,2.6-8.1,4.9c-2.2,2.4-3.7,5.3-4.4,8.5c-0.9,4-1.4,8.2-1.3,12.3
	v105.5c-0.1,4.1,0.4,8.3,1.3,12.3c0.7,3.1,2.2,6,4.3,8.5c2.2,2.3,4.9,4,8,4.9c3.9,1.1,8,1.6,12.1,1.6c3.9,0.1,7.8-0.4,11.6-1.4
	c2.9-0.8,5.6-2.3,7.9-4.3c2.1-2.1,3.5-4.7,4.3-7.5c0.9-3.5,1.4-7.2,1.5-10.8v-42.5H398V200c0,1-0.1,2.1-0.2,3.1
	c-0.1,0.8-0.4,1.6-0.9,2.2c-0.4,0.6-1,1.1-1.7,1.4c-0.8,0.4-1.6,0.6-2.5,0.5c-1,0-1.9-0.2-2.8-0.8c-0.7-0.5-1.3-1.1-1.8-1.9
	c-0.6-0.9-0.9-2-0.9-3.1c-0.1-1.4-0.2-2.9-0.2-4.6v-48.3H417.9z M387.2,81.6c0.1-1.1,0.4-2.1,0.9-3.1c0.4-0.8,1.1-1.4,1.8-1.8
	c0.9-0.4,1.8-0.6,2.8-0.5c0.9,0,1.8,0.2,2.6,0.6c0.7,0.4,1.3,1,1.8,1.6c0.5,0.9,0.8,1.9,0.9,2.9c0.2,1.2,0.3,2.7,0.4,4.3V135H387
	V85.8C387,84.2,387.1,82.8,387.2,81.6z"/>
<path class="st0" d="M358.1,73.2c-0.6-1.7-1.4-3.4-2.4-4.9c-0.9-1.3-2-2.5-3.4-3.4c-1.3-0.9-2.8-1.6-4.4-2c-1.7-0.4-3.5-0.6-5.3-0.6
	c-1.9,0-3.8,0.2-5.7,0.8c-1.5,0.5-2.9,1.1-4.1,2c-1.1,0.8-2.1,1.7-2.8,2.9c-0.8,1.1-1.4,2.2-1.9,3.4V64h-19.7v155.8H328V87.4
	c0-1.1,0-2.2,0.2-3.4c0.1-1,0.2-1.8,0.4-2.7c0.1-0.7,0.4-1.5,0.8-2.1c0.3-0.5,0.7-0.9,1.2-1.3c0.4-0.3,0.9-0.5,1.4-0.7
	c0.6-0.2,1.3-0.2,1.9-0.2c0.6,0,1.2,0.1,1.8,0.2c0.5,0.1,1.1,0.4,1.5,0.7c0.4,0.3,0.8,0.8,1.1,1.3c0.3,0.7,0.6,1.4,0.7,2.1
	c0.2,0.9,0.3,1.7,0.4,2.7c0.1,1.1,0.2,2.2,0.2,3.4v47.8h20.3V87.7c0-2.7-0.1-5.4-0.4-8.1C359.2,77.4,358.7,75.3,358.1,73.2z"/>
<rect x="117.1" y="64" class="st0" width="19.7" height="155.8"/>
<rect x="117.1" class="st0" width="19.7" height="34.1"/>
<path class="st0" d="M102.3,68.4c-2-2.4-4.7-4.1-7.7-4.9c-3.9-1.1-7.9-1.7-11.9-1.6c-4.1-0.1-8.1,0.4-12,1.6
	c-6.3,1.7-11.2,6.9-12.5,13.3c-0.9,4-1.4,8.2-1.3,12.3v105.5c-0.1,4.1,0.4,8.3,1.3,12.3c0.7,3.1,2.2,6,4.3,8.5c2.2,2.3,4.9,4,8,4.9
	c3.9,1.1,8,1.6,12.1,1.6c3.9,0.1,7.8-0.4,11.6-1.4c2.9-0.8,5.6-2.3,7.9-4.3c2.1-2.1,3.5-4.7,4.3-7.5c0.9-3.5,1.4-7.2,1.5-10.8v-42.5
	H88V200c0,1-0.1,2.1-0.2,3.1c-0.1,0.8-0.4,1.6-0.9,2.2c-0.5,0.6-1,1.1-1.7,1.4c-0.8,0.4-1.6,0.6-2.5,0.5c-1,0-1.9-0.2-2.8-0.8
	c-0.7-0.5-1.3-1.1-1.8-1.9c-0.6-0.9-0.9-2-0.9-3.1c-0.1-1.4-0.2-2.9-0.2-4.6v-48.3h30.9V90.1c0.1-4.4-0.4-8.7-1.4-13
	C105.8,73.9,104.4,71,102.3,68.4z M88.3,135H77V85.8c0-1.6,0-3,0.2-4.2c0.1-1.1,0.4-2.1,0.9-3.1c0.4-0.8,1.1-1.4,1.8-1.8
	c0.9-0.4,1.8-0.6,2.8-0.5c0.9,0,1.8,0.2,2.6,0.6c0.7,0.4,1.3,1,1.8,1.6c0.5,0.9,0.8,1.9,0.9,2.9c0.2,1.2,0.3,2.7,0.4,4.3L88.3,135z"
	/>
</svg>
