<svg id="Calque_1" data-name="Calque 1" xmlns="http://www.w3.org/2000/svg" viewBox="0 0 425.2 150.01"><defs><style>.cls-1{fill:#fff;}</style></defs><path class="cls-1" d="M103.69,66.17h2.56c3.09,0,4.43,1.76,4.43,5.66v.39c0,3.9-1.34,5.66-4.43,5.66h-2.56Zm2.58,10.35c2,0,2.7-1.37,2.7-4.35v-.29c0-3-.73-4.35-2.7-4.35h-1v9Z" transform="translate(-65.42 -63.93)"/><path class="cls-1" d="M111.7,74V73.5c0-2.69,1-4.14,3.08-4.14,2.25,0,3,1.28,3,4.77h-4.48c0,1.87.43,2.76,1.47,2.76a1.24,1.24,0,0,0,1.33-1.41h1.58c0,1.57-1,2.61-2.91,2.61C112.6,78.1,111.7,76.66,111.7,74Zm4.5-1.1h0c0-1.59-.33-2.38-1.42-2.38s-1.43.76-1.47,2.39Z" transform="translate(-65.42 -63.93)"/><path class="cls-1" d="M119.15,69.58h1.56v.92a2.06,2.06,0,0,1,1.94-1.14c1.61,0,2.65,1.25,2.65,4.13V74c0,2.87-1,4.12-2.65,4.12A2,2,0,0,1,120.71,77v4h-1.56Zm1.5,4.29c0,1.09,0,3,1.49,3,1,0,1.49-.83,1.49-3v-.28c0-2.18-.49-3-1.49-3-1.45,0-1.49,1.92-1.49,3Z" transform="translate(-65.42 -63.93)"/><path class="cls-1" d="M128.14,69.58v5.26c0,1.43.44,2,1.32,2s1.31-.61,1.31-2V69.58h1.56v8.3h-1.56v-.79a2.07,2.07,0,0,1-1.86,1c-1.48,0-2.33-.78-2.33-2.88V69.58Z" transform="translate(-65.42 -63.93)"/><path class="cls-1" d="M135.85,66.17v1.94h-1.56V66.17Zm-1.56,3.41h1.56v8.3h-1.56Z" transform="translate(-65.42 -63.93)"/><path class="cls-1" d="M137.23,75.51h1.56c0,1,.46,1.48,1.33,1.48a1.12,1.12,0,0,0,1.28-1.13v0c0-.72-.37-1-1-1.23L139.07,74a2.3,2.3,0,0,1-1.74-2.4v0c0-1.46,1.17-2.23,2.61-2.23,1.65,0,2.72.73,2.72,2.38H141.1c0-1-.52-1.28-1.13-1.28a1,1,0,0,0-1.13,1.08v0a1.19,1.19,0,0,0,.88,1.16l1.31.55c1.12.45,1.88,1,1.88,2.36v.08c0,1.64-1.18,2.39-2.79,2.39C138.23,78.1,137.23,77.21,137.23,75.51Z" transform="translate(-65.42 -63.93)"/><path class="cls-1" d="M147.88,69H146.3V67.62h.28c1.24,0,1.52-.23,1.68-1.45h1.24V77.88h-1.62Z" transform="translate(-65.42 -63.93)"/><path class="cls-1" d="M158.12,71v1c0,4.84-1.25,6-3.36,6a2.67,2.67,0,0,1-3-2.88h1.62c0,1.1.6,1.54,1.4,1.54,1.19,0,1.62-.84,1.62-4.06a2.23,2.23,0,0,1-2.09,1.12c-1.73,0-2.75-1.17-2.75-3.95v-.12c0-2.53,1.06-3.8,3.25-3.8S158.12,67.16,158.12,71Zm-4.85-1.15v.08c0,1.85.52,2.56,1.59,2.56s1.58-.71,1.58-2.56v-.08c0-1.86-.52-2.57-1.58-2.57S153.27,68,153.27,69.86Z" transform="translate(-65.42 -63.93)"/><path class="cls-1" d="M159.77,74.75v-.09a2.92,2.92,0,0,1,1.55-2.91h0A2.9,2.9,0,0,1,160,69.13V69a3.16,3.16,0,0,1,6.31,0v.11a2.9,2.9,0,0,1-1.28,2.61h0a2.92,2.92,0,0,1,1.55,2.91v.09a3.43,3.43,0,0,1-6.85,0Zm5.18-.1v-.12c0-1.33-.59-2.1-1.75-2.1s-1.76.77-1.76,2.1v.12c0,1.35.59,2.11,1.76,2.11S165,76,165,74.65Zm-.24-5.39v-.15c0-1-.5-1.82-1.51-1.82s-1.51.8-1.51,1.82v.15c0,1.09.49,1.89,1.51,1.89S164.71,70.35,164.71,69.26Z" transform="translate(-65.42 -63.93)"/><path class="cls-1" d="M168,76.37c0-2.33.7-3,2.29-4.25l1-.81a2.57,2.57,0,0,0,1.16-2.41v-.05c0-1.07-.41-1.56-1.4-1.56s-1.37.5-1.37,1.84H168c0-2,1-3.18,3.06-3.18s3,.94,3,2.86v.11c0,1.79-.65,2.48-2,3.55l-1,.81a3.13,3.13,0,0,0-1.52,3.22h4.58v1.38H168Z" transform="translate(-65.42 -63.93)"/><path class="cls-1" d="M96,69.84a13.33,13.33,0,0,0-5.56-3.41,26.53,26.53,0,0,0-8.16-1.1H65.42V212.54H78.64V150.45h3.61a26.53,26.53,0,0,0,8.16-1.1A13.66,13.66,0,0,0,96,146a12.55,12.55,0,0,0,3.1-5.66,31,31,0,0,0,.9-7.91v-49a31,31,0,0,0-.9-8A12.89,12.89,0,0,0,96,69.84ZM86.55,134a15,15,0,0,1-.2,2.6,3.55,3.55,0,0,1-2.3,2.85,5.64,5.64,0,0,1-2.1.35H78.64v-64H82a5.85,5.85,0,0,1,2.1.35,3.76,3.76,0,0,1,1.5,1.06,3.63,3.63,0,0,1,.8,1.75,14.83,14.83,0,0,1,.2,2.65Z" transform="translate(-65.42 -63.93)"/><path class="cls-1" d="M135.82,205.48V122.41a29.57,29.57,0,0,0-.8-7.36,10.38,10.38,0,0,0-2.7-4.91,10.65,10.65,0,0,0-5.06-2.6,34.13,34.13,0,0,0-7.76-.75,27.36,27.36,0,0,0-7.46.9,12.38,12.38,0,0,0-5.11,2.7,11.17,11.17,0,0,0-3,4.71,21.22,21.22,0,0,0-1,6.91v22.12h13V120.91c0-.8,0-1.54.1-2.21a3,3,0,0,1,.6-1.6,4.46,4.46,0,0,1,1.11-.95,3.42,3.42,0,0,1,1.7-.35,3.58,3.58,0,0,1,1.6.35,3,3,0,0,1,1.1.9,3.52,3.52,0,0,1,.55,1.55,15.06,15.06,0,0,1,.15,2.21v26.83h-1.6a36.27,36.27,0,0,0-9.06,1,14,14,0,0,0-5.86,2.9,10.47,10.47,0,0,0-3.1,5.06,26.8,26.8,0,0,0-.91,7.41v34.85a29.68,29.68,0,0,0,.66,6.71,13.07,13.07,0,0,0,1.9,4.6,7.59,7.59,0,0,0,3.35,2.71,12.14,12.14,0,0,0,4.81.9,12.32,12.32,0,0,0,3.91-.55,12.56,12.56,0,0,0,2.8-1.35,7.47,7.47,0,0,0,2-2,8.72,8.72,0,0,0,1.2-2.35,12.4,12.4,0,0,0,.25,1.4,3.49,3.49,0,0,1,.1,1.2,7.35,7.35,0,0,0,0,1.15,7.08,7.08,0,0,0,.26,1.26h12.51c-.07-1.14-.13-2.27-.2-3.41S135.82,206.78,135.82,205.48Zm-13-5a9.85,9.85,0,0,1-.35,1.4A3.28,3.28,0,0,1,122,203a5.14,5.14,0,0,1-.7.75,1.85,1.85,0,0,1-1,.41,7.6,7.6,0,0,1-1.1.1,3.93,3.93,0,0,1-1.65-.3,3,3,0,0,1-1.11-.91,3.39,3.39,0,0,1-.6-1.5,12.92,12.92,0,0,1-.15-2.1V163.17a14.22,14.22,0,0,1,.35-3.51,4,4,0,0,1,1.16-2,4.35,4.35,0,0,1,2.1-.95,18.39,18.39,0,0,1,3.4-.25h.3v42.36A9.19,9.19,0,0,1,122.85,200.52Z" transform="translate(-65.42 -63.93)"/><path class="cls-1" d="M161.86,198.32a17.58,17.58,0,0,1-.15,2.45,4.3,4.3,0,0,1-.6,1.75,2.92,2.92,0,0,1-1.11,1,4,4,0,0,1-3.3,0,3,3,0,0,1-1.1-1,4.3,4.3,0,0,1-.6-1.75,17.58,17.58,0,0,1-.15-2.45V108.19H141.93v90.23a35.27,35.27,0,0,0,.6,7,12.79,12.79,0,0,0,1.85,4.7,7.85,7.85,0,0,0,3.21,2.71,11,11,0,0,0,4.65.9,13.26,13.26,0,0,0,3.71-.5,8.69,8.69,0,0,0,2.75-1.3,9.37,9.37,0,0,0,1.86-1.91,12.93,12.93,0,0,0,1.3-2.2v4.71h12.82V108.19H161.86Z" transform="translate(-65.42 -63.93)"/><rect class="cls-1" x="115.76" y="1.4" width="12.92" height="147.21"/><path class="cls-1" d="M246.22,141.64a9.62,9.62,0,0,0-2.65-3,10.56,10.56,0,0,0-3.71-1.55v-.2a12.32,12.32,0,0,0,3.31-1.8,9.33,9.33,0,0,0,2.4-3,15.89,15.89,0,0,0,1.5-4.55,34.31,34.31,0,0,0,.5-6.36V82.15a34.41,34.41,0,0,0-.35-5.16,16.07,16.07,0,0,0-1.2-4.25,12.29,12.29,0,0,0-2.2-3.36,10.19,10.19,0,0,0-3.21-2.3,18,18,0,0,0-4.3-1.3,31.05,31.05,0,0,0-5.56-.45H213.42V212.54h17.43a27.45,27.45,0,0,0,8.21-1,12.44,12.44,0,0,0,5.36-3.21,13.32,13.32,0,0,0,3.05-5.51,27.07,27.07,0,0,0,1-7.76V153.35a37.3,37.3,0,0,0-.55-7A14.23,14.23,0,0,0,246.22,141.64Zm-19.58-65.9h3.61a4.53,4.53,0,0,1,2,.4,3.44,3.44,0,0,1,1.25,1,4.32,4.32,0,0,1,.7,1.6,9.36,9.36,0,0,1,.25,2.3v45.57a9.29,9.29,0,0,1-.25,2.35,4.9,4.9,0,0,1-.7,1.6,3.16,3.16,0,0,1-1.25,1.05,4.4,4.4,0,0,1-2,.4h-3.61Zm8.42,120.88a10,10,0,0,1-.26,2.35,4.24,4.24,0,0,1-.75,1.7,3.39,3.39,0,0,1-1.4,1.05,5.65,5.65,0,0,1-2.3.4h-3.71V142.34h3.71a7.42,7.42,0,0,1,2.3.3,2.61,2.61,0,0,1,1.4,1.05,5.25,5.25,0,0,1,.75,1.8,9.51,9.51,0,0,1,.26,2.25Z" transform="translate(-65.42 -63.93)"/><rect class="cls-1" x="227.71" y="1.4" width="12.92" height="22.83"/><rect class="cls-1" x="227.71" y="44.26" width="12.92" height="104.35"/><path class="cls-1" d="M341.56,111.09a11.58,11.58,0,0,0-5.15-3.25,25.75,25.75,0,0,0-7.92-1,26.16,26.16,0,0,0-8,1,11.86,11.86,0,0,0-5.25,3.25,12.8,12.8,0,0,0-2.86,5.66,34.79,34.79,0,0,0-.85,8.26v70.7a35,35,0,0,0,.85,8.22,12.74,12.74,0,0,0,2.86,5.7,11.79,11.79,0,0,0,5.25,3.26,26.16,26.16,0,0,0,8,1.05,25.75,25.75,0,0,0,7.92-1.05,11.51,11.51,0,0,0,5.15-3.26,13.5,13.5,0,0,0,2.86-5.7,33.33,33.33,0,0,0,.9-8.22V125a33.11,33.11,0,0,0-.9-8.26A13.57,13.57,0,0,0,341.56,111.09Zm-9.46,86.23c0,1.13,0,2.13-.1,3a5,5,0,0,1-.6,2.15,4.11,4.11,0,0,1-1.15,1.3,3.06,3.06,0,0,1-1.76.46,3.29,3.29,0,0,1-1.8-.46,3.33,3.33,0,0,1-1.15-1.3,6,6,0,0,1-.6-2.15,26.56,26.56,0,0,1-.15-3V123.41a26.44,26.44,0,0,1,.15-3,6.15,6.15,0,0,1,.6-2.16,3,3,0,0,1,1.15-1.25,3.69,3.69,0,0,1,1.8-.4,3.42,3.42,0,0,1,1.76.4,3.7,3.7,0,0,1,1.15,1.25,5.1,5.1,0,0,1,.6,2.16c.06.86.1,1.87.1,3Z" transform="translate(-65.42 -63.93)"/><path class="cls-1" d="M372.76,113a14.54,14.54,0,0,0-1.25-2.21,7.94,7.94,0,0,0-1.85-1.9,10.55,10.55,0,0,0-2.71-1.35,11.26,11.26,0,0,0-3.7-.55,13.76,13.76,0,0,0-3.46.4,9,9,0,0,0-2.85,1.3,8.06,8.06,0,0,0-2.2,2.3,15.66,15.66,0,0,0-1.56,3.31,20,20,0,0,0-.9,4.25A54.29,54.29,0,0,0,352,124v72.61a54.08,54.08,0,0,0,.25,5.45,20.9,20.9,0,0,0,.9,4.31,14.08,14.08,0,0,0,1.56,3.3,9.12,9.12,0,0,0,2.2,2.31,8.49,8.49,0,0,0,2.85,1.35,14.23,14.23,0,0,0,3.46.4,11.53,11.53,0,0,0,3.7-.55,10.55,10.55,0,0,0,2.71-1.35,7.8,7.8,0,0,0,1.85-1.91,12.53,12.53,0,0,0,1.25-2.3v4.91h12.92V65.33H372.76Zm.1,10.81v73a21.12,21.12,0,0,1-.1,2.25c-.07.63-.15,1.23-.25,1.8a3.83,3.83,0,0,1-.5,1.4,3,3,0,0,1-.75.85,2.79,2.79,0,0,1-.95.45,4.81,4.81,0,0,1-1.25.15,4.93,4.93,0,0,1-1.2-.15,2.77,2.77,0,0,1-1-.45,2.64,2.64,0,0,1-.7-.85,4.52,4.52,0,0,1-.45-1.4c-.1-.57-.18-1.17-.25-1.8a21.12,21.12,0,0,1-.1-2.25v-73a21,21,0,0,1,.1-2.25c.07-.64.15-1.24.25-1.8a4.68,4.68,0,0,1,.45-1.41,2.41,2.41,0,0,1,1.71-1.3,4.93,4.93,0,0,1,1.2-.15,4.81,4.81,0,0,1,1.25.15,2.79,2.79,0,0,1,.95.45,3.17,3.17,0,0,1,.75.85,4.61,4.61,0,0,1,.55,1.41,10,10,0,0,1,.25,1.8C372.85,122.19,372.86,123,372.86,123.81Z" transform="translate(-65.42 -63.93)"/><path class="cls-1" d="M445.31,148.25a27,27,0,0,0-2.86-5.11c-1.14-1.6-2.6-3.44-4.4-5.51l-6.51-8.11q-1.6-2.4-2.81-4a13.71,13.71,0,0,1-1.85-3.25,14.6,14.6,0,0,1-.9-3.81,44.62,44.62,0,0,1-.25-5.15V79.15a10,10,0,0,1,.1-1.5,5.54,5.54,0,0,1,.3-1.26,4.41,4.41,0,0,1,.55-1,2,2,0,0,1,.8-.7,8.88,8.88,0,0,1,.95-.35,4.64,4.64,0,0,1,1.3-.15,4.77,4.77,0,0,1,1.76.3,3.54,3.54,0,0,1,1.3.9,3.79,3.79,0,0,1,.8,1.71,12.26,12.26,0,0,1,.25,2.6V116.9H447V80.35A25.11,25.11,0,0,0,446,73a11.41,11.41,0,0,0-3.11-5.06,13.79,13.79,0,0,0-5.36-3,25.91,25.91,0,0,0-7.71-1,30.25,30.25,0,0,0-5.45.45,19,19,0,0,0-4.36,1.3,11.59,11.59,0,0,0-3.31,2.2,12.21,12.21,0,0,0-2.35,3.21,14.74,14.74,0,0,0-1.35,4,27.94,27.94,0,0,0-.4,5V114.5a56,56,0,0,0,.45,7.81,23.35,23.35,0,0,0,1.55,5.71,22.81,22.81,0,0,0,2.86,4.9c1.16,1.54,2.62,3.38,4.35,5.51l6.71,8.11c1.14,1.61,2.07,3,2.81,4.11a18.63,18.63,0,0,1,1.8,3.6,16.67,16.67,0,0,1,.9,4.06c.13,1.44.2,3.15.2,5.16v34.95a13.8,13.8,0,0,1-.1,1.85,4.55,4.55,0,0,1-.35,1.3,3.86,3.86,0,0,1-.6,1,3.65,3.65,0,0,1-.85.7,3,3,0,0,1-1.1.4,8.57,8.57,0,0,1-2.61,0,2,2,0,0,1-1.05-.5,9.74,9.74,0,0,1-.85-.85,2.8,2.8,0,0,1-.6-1.15,14.41,14.41,0,0,1-.35-1.5,10.53,10.53,0,0,1-.15-1.9v-38H412.51V197a22.84,22.84,0,0,0,.9,7.52,13.07,13.07,0,0,0,3.11,5.25,12.35,12.35,0,0,0,5.45,3.16,28.75,28.75,0,0,0,8.06,1,26.45,26.45,0,0,0,7.87-1.05,13.65,13.65,0,0,0,5.45-3.06,11.87,11.87,0,0,0,3.11-5.1,24.14,24.14,0,0,0,1-7.31V162.17a53.92,53.92,0,0,0-.5-8A25.44,25.44,0,0,0,445.31,148.25Z" transform="translate(-65.42 -63.93)"/><path class="cls-1" d="M477.7,212.54h12.92L479,65.33H461.88L450.26,212.54h11.92L465,171.68h10.12Zm-12-51.38,4.43-65.29h.1l4.2,65.29Z" transform="translate(-65.42 -63.93)"/><path class="cls-1" d="M286.88,114.35a14.16,14.16,0,0,0-1.55-3.31,9.12,9.12,0,0,0-2.21-2.3,8.22,8.22,0,0,0-2.85-1.35,13.76,13.76,0,0,0-3.46-.4,11.3,11.3,0,0,0-3.7.55,10.23,10.23,0,0,0-2.71,1.35,7.76,7.76,0,0,0-1.85,1.9,12.61,12.61,0,0,0-1.25,2.31v-4.91H254.38V212.54H267.2V123.91c0-.87,0-1.62.1-2.25s.15-1.24.25-1.81a4,4,0,0,1,.5-1.4,3.55,3.55,0,0,1,.75-.85,2.88,2.88,0,0,1,.95-.45A4.84,4.84,0,0,1,271,117a4.93,4.93,0,0,1,1.2.15,2.79,2.79,0,0,1,1,.45,2.62,2.62,0,0,1,.7.85,4.7,4.7,0,0,1,.45,1.4c.1.57.19,1.17.25,1.81a20.87,20.87,0,0,1,.1,2.25v34.65H288V124.11a51.48,51.48,0,0,0-.25-5.46A20.8,20.8,0,0,0,286.88,114.35Z" transform="translate(-65.42 -63.93)"/></svg>