<?xml version="1.0" encoding="utf-8"?>
<!-- Generator: Adobe Illustrator 24.2.1, SVG Export Plug-In . SVG Version: 6.00 Build 0)  -->
<svg version="1.1" id="Calque_1" xmlns="http://www.w3.org/2000/svg" xmlns:xlink="http://www.w3.org/1999/xlink" x="0px" y="0px"
	 viewBox="0 0 425.2 150" style="enable-background:new 0 0 425.2 150;"<defs><style>.cls-1{fill:#fff;}</style></defs> xml:space="preserve">
<path d="M38.3,2.2h2.6c3.1,0,4.4,1.8,4.4,5.7v0.4c0,3.9-1.3,5.7-4.4,5.7h-2.6V2.2z M40.9,12.6c2,0,2.7-1.4,2.7-4.3V7.9
	c0-3-0.7-4.3-2.7-4.3h-1v9L40.9,12.6z"/>
<path d="M46.3,10.1V9.6c0-2.7,1-4.1,3.1-4.1c2.2,0,3,1.3,3,4.8h-4.5c0,1.9,0.4,2.8,1.5,2.8c0.7,0.1,1.3-0.5,1.3-1.1
	c0-0.1,0-0.2,0-0.3h1.6c0,1.6-1,2.6-2.9,2.6C47.2,14.2,46.3,12.7,46.3,10.1z M50.8,9L50.8,9c0-1.6-0.3-2.4-1.4-2.4S47.9,7.4,47.9,9
	L50.8,9z"/>
<path d="M53.7,5.7h1.6v0.9c0.4-0.7,1.1-1.2,1.9-1.1c1.6,0,2.7,1.2,2.7,4.1v0.5c0,2.9-1,4.1-2.7,4.1c-0.8,0.1-1.6-0.4-1.9-1.1v4h-1.6
	V5.7z M55.2,9.9c0,1.1,0,3,1.5,3c1,0,1.5-0.8,1.5-3V9.7c0-2.2-0.5-3-1.5-3c-1.4,0-1.5,1.9-1.5,3V9.9z"/>
<path d="M62.7,5.7v5.3c0,1.4,0.4,2,1.3,2s1.3-0.6,1.3-2V5.7h1.6V14h-1.6v-0.8c-0.4,0.6-1.1,1-1.9,1c-1.5,0-2.3-0.8-2.3-2.9V5.7H62.7
	z"/>
<path d="M70.4,2.2v1.9h-1.6V2.2H70.4z M68.9,5.7h1.6V14h-1.6V5.7z"/>
<path d="M71.8,11.6h1.6c0,1,0.5,1.5,1.3,1.5c0.6,0.1,1.2-0.3,1.3-0.9c0-0.1,0-0.1,0-0.2l0,0c0-0.7-0.4-1-1-1.2l-1.3-0.6
	c-1.1-0.3-1.8-1.3-1.7-2.4l0,0c0-1.5,1.2-2.2,2.6-2.2c1.6,0,2.7,0.7,2.7,2.4h-1.6c0-1-0.5-1.3-1.1-1.3c-0.5-0.1-1.1,0.3-1.1,0.9
	c0,0.1,0,0.1,0,0.2l0,0c0,0.5,0.4,1,0.9,1.2l1.3,0.6c1.1,0.4,1.9,1,1.9,2.4v0.1c0,1.6-1.2,2.4-2.8,2.4
	C72.8,14.2,71.8,13.3,71.8,11.6z"/>
<path d="M82.5,5.1h-1.6V3.7h0.3c1.2,0,1.5-0.2,1.7-1.4h1.2v11.7h-1.6V5.1z"/>
<path d="M92.7,7.1v1c0,4.8-1.2,6-3.4,6c-1.5,0.2-2.8-0.8-3-2.3c0-0.2,0-0.4,0-0.6H88c0,1.1,0.6,1.5,1.4,1.5c1.2,0,1.6-0.8,1.6-4.1
	c-0.4,0.7-1.2,1.2-2.1,1.1c-1.7,0-2.8-1.2-2.8-3.9V5.7c0-2.5,1.1-3.8,3.2-3.8S92.7,3.2,92.7,7.1z M87.8,5.9L87.8,5.9
	c0,1.9,0.5,2.6,1.6,2.6S91,7.8,91,6V5.9c0-1.9-0.5-2.6-1.6-2.6S87.9,4.1,87.8,5.9L87.8,5.9z"/>
<path d="M94.4,10.8L94.4,10.8c-0.1-1.3,0.5-2.4,1.6-3l0,0c-0.9-0.6-1.4-1.6-1.3-2.6V5.1c0.1-1.7,1.6-3.1,3.3-3c1.6,0.1,2.9,1.4,3,3
	v0.1c0.1,1-0.4,2-1.3,2.6l0,0c1.1,0.6,1.7,1.7,1.6,2.9v0.1c-0.1,1.9-1.7,3.3-3.6,3.2C95.8,13.9,94.4,12.5,94.4,10.8L94.4,10.8z
	 M99.5,10.7v-0.1c0-1.3-0.6-2.1-1.8-2.1S96,9.3,96,10.6v0.1c0,1.3,0.6,2.1,1.8,2.1S99.6,12.1,99.5,10.7L99.5,10.7z M99.3,5.3V5.2
	c0-1-0.5-1.8-1.5-1.8s-1.5,0.8-1.5,1.8v0.2c0,1.1,0.5,1.9,1.5,1.9S99.3,6.4,99.3,5.3L99.3,5.3z"/>
<path d="M102.6,12.4c0-2.3,0.7-3,2.3-4.2l1-0.8c0.8-0.5,1.3-1.5,1.2-2.4V4.9c0-1.1-0.4-1.6-1.4-1.6s-1.4,0.5-1.4,1.8h-1.7
	c0-2,1-3.2,3.1-3.2s3,0.9,3,2.9V5c0,1.8-0.6,2.5-2,3.6l-1,0.8c-1.1,0.7-1.7,1.9-1.5,3.2h4.6v1.4h-6.1V12.4z"/>
<path d="M30.6,5.9C29,4.3,27.1,3.2,25,2.5c-2.6-0.8-5.4-1.2-8.2-1.1H0v147.2h13.2V86.5h3.6c2.8,0.1,5.5-0.3,8.2-1.1
	c2.1-0.6,4-1.8,5.6-3.3c1.5-1.6,2.6-3.5,3.1-5.7c0.6-2.6,0.9-5.2,0.9-7.9v-49c0-2.7-0.3-5.4-0.9-8C33.1,9.4,32.1,7.5,30.6,5.9z
	 M21.1,70.1c0,0.9-0.1,1.7-0.2,2.6c-0.2,1.3-1.1,2.4-2.3,2.9c-0.7,0.2-1.4,0.4-2.1,0.4h-3.3v-64h3.4c0.7,0,1.4,0.1,2.1,0.3
	c0.6,0.2,1.1,0.6,1.5,1.1c0.4,0.5,0.7,1.1,0.8,1.8c0.1,0.9,0.2,1.8,0.2,2.7L21.1,70.1z"/>
<path d="M70.4,141.5V58.5c0-2.5-0.2-4.9-0.8-7.4c-0.4-1.9-1.4-3.6-2.7-4.9c-1.4-1.3-3.2-2.2-5.1-2.6c-2.5-0.5-5.2-0.8-7.8-0.8
	c-2.5,0-5,0.3-7.5,0.9c-1.9,0.5-3.6,1.4-5.1,2.7c-1.4,1.3-2.4,2.9-3,4.7c-0.7,2.2-1.1,4.6-1,6.9v22.1h13V57c0-0.8,0-1.5,0.1-2.2
	c0-0.6,0.2-1.1,0.6-1.6c0.3-0.4,0.7-0.7,1.1-0.9c0.5-0.3,1.1-0.4,1.7-0.3c0.6,0,1.1,0.1,1.6,0.3c0.4,0.2,0.8,0.5,1.1,0.9
	c0.3,0.5,0.5,1,0.6,1.6c0.1,0.7,0.2,1.5,0.2,2.2v26.8h-1.6c-3.1,0-6.1,0.3-9.1,1c-2.2,0.5-4.2,1.5-5.9,2.9c-1.5,1.4-2.6,3.1-3.1,5.1
	c-0.6,2.4-1,4.9-0.9,7.4v34.9c0,2.3,0.2,4.5,0.7,6.7c0.3,1.6,1,3.2,1.9,4.6c0.8,1.2,2,2.1,3.3,2.7c1.5,0.6,3.2,0.9,4.8,0.9
	c1.3,0,2.6-0.2,3.9-0.6c1-0.3,1.9-0.8,2.8-1.4c0.8-0.5,1.5-1.2,2-2c0.5-0.7,0.9-1.5,1.2-2.4c0.1,0.5,0.2,1.1,0.2,1.4
	c0,0.3,0.2,2.4,0.4,3.6h12.5c-0.1-1.1-0.1-2.3-0.2-3.4C70.4,144.1,70.4,142.9,70.4,141.5z M55.9,139.8c-0.8,0.5-1.4,0.5-2.1,0.5
	c-0.7,0-1.1-0.1-1.7-0.3c-0.4-0.2-0.8-0.5-1.1-0.9c-0.3-0.4-0.5-1-0.6-1.5c-0.1-0.7-0.2-1.4-0.2-2.1V99.2c0-1.2,0.1-2.4,0.3-3.5
	c0.2-0.8,0.6-1.5,1.2-2c0.6-0.5,1.3-0.8,2.1-0.9c1.1-0.2,2.3-0.3,3.4-0.2h0.3v42.4C57.6,137.5,56.7,139.4,55.9,139.8z"/>
<path d="M96.4,134.4c0,0.8,0,1.6-0.1,2.4c-0.1,0.6-0.3,1.2-0.6,1.8c-0.3,0.4-0.7,0.8-1.1,1c-1,0.5-2.3,0.5-3.3,0
	c-0.4-0.2-0.8-0.6-1.1-1c-0.3-0.5-0.5-1.1-0.6-1.8c-0.1-0.8-0.2-1.6-0.1-2.4V44.3H76.5v90.2c0,2.3,0.2,4.7,0.6,7
	c0.3,1.7,0.9,3.3,1.9,4.7c0.8,1.2,1.9,2.1,3.2,2.7c1.5,0.6,3.1,0.9,4.6,0.9c1.3,0,2.5-0.2,3.7-0.5c1-0.3,1.9-0.7,2.8-1.3
	c0.7-0.5,1.3-1.2,1.9-1.9c0.5-0.7,0.9-1.4,1.3-2.2v4.7h12.8V44.3H96.4V134.4z"/>
<rect x="115.8" y="1.4" width="12.9" height="147.2"/>
<path d="M180.8,77.7c-0.7-1.2-1.6-2.2-2.6-3c-1.1-0.7-2.4-1.3-3.7-1.6V73c1.2-0.4,2.3-1,3.3-1.8c1-0.8,1.8-1.8,2.4-3
	c0.7-1.4,1.2-3,1.5-4.6c0.4-2.1,0.5-4.2,0.5-6.4v-39c0-1.7-0.1-3.5-0.4-5.2c-0.2-1.5-0.6-2.9-1.2-4.2c-0.5-1.2-1.3-2.4-2.2-3.4
	c-0.9-1-2-1.7-3.2-2.3c-1.4-0.6-2.8-1-4.3-1.3c-1.8-0.3-3.7-0.5-5.6-0.4H148v147.2h17.4c2.8,0.1,5.5-0.3,8.2-1
	c2-0.6,3.9-1.7,5.4-3.2c1.4-1.6,2.5-3.5,3.1-5.5c0.7-2.5,1-5.1,1-7.8V89.4c0-2.3-0.1-4.7-0.6-7C182.2,80.8,181.6,79.2,180.8,77.7z
	 M161.2,11.8h3.6c0.7,0,1.4,0.1,2,0.4c0.5,0.2,0.9,0.6,1.2,1c0.3,0.5,0.6,1,0.7,1.6c0.2,0.8,0.3,1.5,0.2,2.3v45.6
	c0,0.8-0.1,1.6-0.2,2.4c-0.1,0.6-0.4,1.1-0.7,1.6c-0.3,0.5-0.7,0.8-1.2,1.1c-0.6,0.3-1.3,0.4-2,0.4h-3.6V11.8z M169.6,132.7
	c0,0.8-0.1,1.6-0.3,2.4c-0.1,0.6-0.4,1.2-0.8,1.7c-0.4,0.5-0.8,0.8-1.4,1.1c-0.7,0.3-1.5,0.4-2.3,0.4h-3.7V78.4h3.7
	c0.8,0,1.6,0.1,2.3,0.3c0.6,0.2,1.1,0.5,1.4,1.1c0.4,0.5,0.6,1.2,0.8,1.8c0.2,0.7,0.3,1.5,0.3,2.2V132.7z"/>
<rect x="227.7" y="1.4" width="12.9" height="22.8"/>
<rect x="227.7" y="44.3" width="12.9" height="104.4"/>
<path d="M276.1,47.2c-1.4-1.5-3.2-2.6-5.2-3.2c-2.6-0.7-5.2-1.1-7.9-1c-2.7-0.1-5.4,0.3-8,1c-2,0.6-3.8,1.7-5.2,3.2
	c-1.4,1.6-2.4,3.6-2.9,5.7c-0.6,2.7-0.9,5.5-0.9,8.3v70.7c0,2.8,0.2,5.5,0.9,8.2c0.5,2.1,1.4,4.1,2.9,5.7c1.4,1.5,3.2,2.7,5.2,3.3
	c2.6,0.8,5.3,1.1,8,1c2.7,0.1,5.4-0.3,7.9-1c2-0.6,3.8-1.7,5.2-3.3c1.4-1.6,2.4-3.6,2.9-5.7c0.6-2.7,0.9-5.5,0.9-8.2V61.1
	c0-2.8-0.3-5.6-0.9-8.3C278.5,50.7,277.5,48.8,276.1,47.2z M266.7,133.4c0,1.1,0,2.1-0.1,3c0,0.8-0.2,1.5-0.6,2.1
	c-0.3,0.5-0.7,1-1.1,1.3c-0.5,0.3-1.1,0.5-1.8,0.5c-0.6,0-1.3-0.1-1.8-0.5c-0.5-0.3-0.9-0.8-1.2-1.3c-0.3-0.7-0.5-1.4-0.6-2.1
	c-0.1-1-0.2-2-0.2-3V59.5c0-1,0-2,0.2-3c0.1-0.8,0.3-1.5,0.6-2.2c0.3-0.5,0.7-1,1.2-1.2c0.6-0.3,1.2-0.4,1.8-0.4
	c0.6,0,1.2,0.1,1.8,0.4c0.5,0.3,0.9,0.7,1.1,1.2c0.4,0.7,0.6,1.4,0.6,2.2c0.1,0.9,0.1,1.9,0.1,3V133.4z"/>
<path d="M307.3,49.1c-0.4-0.8-0.8-1.5-1.2-2.2c-0.5-0.7-1.1-1.4-1.9-1.9c-0.8-0.6-1.7-1-2.7-1.3c-1.2-0.4-2.4-0.6-3.7-0.6
	c-1.2,0-2.3,0.1-3.5,0.4c-1,0.3-2,0.7-2.8,1.3c-0.9,0.6-1.6,1.4-2.2,2.3c-0.6,1-1.2,2.1-1.6,3.3c-0.5,1.4-0.8,2.8-0.9,4.2
	c-0.2,1.8-0.3,3.6-0.3,5.4v72.6c0,1.8,0.1,3.6,0.2,5.5c0.1,1.5,0.4,2.9,0.9,4.3c0.4,1.2,0.9,2.3,1.6,3.3c0.6,0.9,1.3,1.7,2.2,2.3
	c0.9,0.6,1.8,1.1,2.9,1.4c1.1,0.3,2.3,0.4,3.5,0.4c1.3,0,2.5-0.2,3.7-0.5c1-0.3,1.9-0.8,2.7-1.4c0.7-0.5,1.3-1.2,1.8-1.9
	c0.5-0.7,0.9-1.5,1.2-2.3v4.9h12.9V1.4h-12.9V49.1z M307.4,59.9v73c0,0.8,0,1.5-0.1,2.2c-0.1,0.6-0.2,1.2-0.2,1.8
	c-0.1,0.5-0.2,1-0.5,1.4c-0.2,0.3-0.4,0.6-0.8,0.9c-0.3,0.2-0.6,0.4-1,0.5c-0.4,0.1-0.8,0.2-1.2,0.1c-0.4,0-0.8-0.1-1.2-0.1
	c-0.4-0.1-0.7-0.2-1-0.5c-0.3-0.2-0.5-0.5-0.7-0.9c-0.2-0.4-0.4-0.9-0.5-1.4c-0.1-0.6-0.2-1.2-0.2-1.8c-0.1-0.7-0.1-1.5-0.1-2.2v-73
	c0-0.8,0-1.5,0.1-2.2c0.1-0.6,0.1-1.2,0.2-1.8c0.1-0.5,0.2-1,0.5-1.4c0.3-0.7,1-1.2,1.7-1.3c0.4-0.1,0.8-0.1,1.2-0.2
	c0.4,0,0.8,0,1.2,0.2c0.3,0.1,0.7,0.2,1,0.4c0.3,0.2,0.6,0.5,0.8,0.8c0.3,0.4,0.4,0.9,0.5,1.4c0.1,0.6,0.2,1.2,0.2,1.8
	C307.4,58.3,307.4,59.1,307.4,59.9L307.4,59.9z"/>
<path d="M379.9,84.3c-0.8-1.8-1.7-3.5-2.9-5.1c-1.1-1.6-2.6-3.4-4.4-5.5l-6.5-8.1c-1.1-1.6-2-2.9-2.8-4c-0.8-1-1.4-2.1-1.8-3.2
	c-0.5-1.2-0.8-2.5-0.9-3.8c-0.2-1.7-0.3-3.4-0.2-5.2V15.2c0-0.5,0-1,0.1-1.5c0.1-0.4,0.2-0.9,0.3-1.3c0.1-0.4,0.3-0.7,0.5-1
	c0.2-0.3,0.5-0.5,0.8-0.7c0.3-0.1,0.6-0.3,1-0.3c0.4-0.1,0.9-0.2,1.3-0.2c0.6,0,1.2,0.1,1.8,0.3c0.5,0.2,0.9,0.5,1.3,0.9
	c0.4,0.5,0.7,1.1,0.8,1.7c0.2,0.9,0.3,1.7,0.2,2.6V53h13.2V16.4c0-2.5-0.3-5-1-7.3c-0.6-1.9-1.6-3.7-3.1-5.1c-1.5-1.4-3.4-2.4-5.4-3
	c-2.5-0.7-5.1-1.1-7.7-1c-1.8,0-3.7,0.1-5.5,0.4c-1.5,0.3-3,0.7-4.4,1.3c-1.2,0.5-2.3,1.3-3.3,2.2c-1,0.9-1.7,2-2.3,3.2
	c-0.6,1.3-1.1,2.6-1.4,4c-0.3,1.7-0.4,3.3-0.4,5v34.4c0,2.6,0.1,5.2,0.5,7.8c0.3,2,0.8,3.9,1.5,5.7c0.7,1.7,1.7,3.4,2.9,4.9
	c1.2,1.5,2.6,3.4,4.3,5.5l6.7,8.1c1.1,1.6,2.1,3,2.8,4.1c0.7,1.1,1.3,2.3,1.8,3.6c0.5,1.3,0.8,2.7,0.9,4.1c0.1,1.4,0.2,3.1,0.2,5.2
	v34.9c0,0.6,0,1.2-0.1,1.9c-0.1,0.4-0.2,0.9-0.4,1.3c-0.1,0.4-0.4,0.7-0.6,1c-0.2,0.3-0.5,0.5-0.9,0.7c-0.3,0.2-0.7,0.3-1.1,0.4
	c-0.9,0.1-1.7,0.1-2.6,0c-0.4-0.1-0.8-0.2-1-0.5c-0.3-0.3-0.6-0.5-0.9-0.9c-0.3-0.3-0.5-0.7-0.6-1.1c-0.1-0.5-0.3-1-0.4-1.5
	c-0.1-0.6-0.2-1.3-0.1-1.9v-38h-13.1v37.2c-0.1,2.5,0.2,5.1,0.9,7.5c0.6,2,1.7,3.8,3.1,5.2c1.5,1.5,3.4,2.6,5.5,3.2
	c2.6,0.7,5.3,1,8.1,1c2.7,0,5.3-0.3,7.9-1c2-0.6,3.9-1.6,5.5-3.1c1.5-1.4,2.5-3.2,3.1-5.1c0.7-2.4,1-4.8,1-7.3V98.2
	c0-2.7-0.1-5.3-0.5-8C381.2,88.2,380.7,86.2,379.9,84.3z"/>
<path d="M412.3,148.6h12.9L413.6,1.4h-17.1l-11.6,147.2h11.9l2.8-40.9h10.1L412.3,148.6z M400.3,97.2l4.4-65.3h0.1l4.2,65.3H400.3z"
	/>
<path d="M221.5,50.4c-0.4-1.2-0.9-2.3-1.5-3.3c-0.6-0.9-1.3-1.7-2.2-2.3c-0.9-0.6-1.8-1.1-2.9-1.3c-1.1-0.3-2.3-0.4-3.5-0.4
	c-1.3,0-2.5,0.2-3.7,0.6c-1,0.3-1.9,0.8-2.7,1.3c-0.7,0.5-1.3,1.2-1.9,1.9c-0.5,0.7-0.9,1.5-1.2,2.3v-4.9H189v104.3h12.8V60
	c0-0.9,0-1.6,0.1-2.2s0.1-1.2,0.2-1.8c0.1-0.5,0.2-1,0.5-1.4c0.2-0.3,0.5-0.6,0.8-0.8c0.3-0.2,0.6-0.4,1-0.4
	c0.4-0.1,0.8-0.2,1.2-0.2c0.4,0,0.8,0.1,1.2,0.2c0.4,0.1,0.7,0.2,1,0.4c0.3,0.2,0.5,0.5,0.7,0.8c0.2,0.4,0.4,0.9,0.5,1.4
	c0.1,0.6,0.2,1.2,0.2,1.8c0.1,0.7,0.1,1.5,0.1,2.2v34.7h13.3V60.2c0-1.8-0.1-3.6-0.2-5.5C222.2,53.3,221.9,51.8,221.5,50.4z"/>
</svg>
